# xmcd
#
# Track frame offsets:
#  150
#  24629
#  46529
#  59684
#  84075
#  105979
#  125138
#  147755
#  169380
#  199140
#
# Disc length: 2906 seconds
#
# Revision: 0
# Processed by: cddbd v1.5.1PL2 Copyright (c) Steve Scherf et al.
# Submitted via: Collectorz.com_Music_Collector 6.11
#
DISCID=830b580a
DTITLE=John Earl Walker Band - I'm Leavin' You
DYEAR=2003
DGENRE=Blues
TTITLE0=Gonna Miss Me
TTITLE1=I'm Leavin' You
TTITLE2=I Put You First
TTITLE3=My First Guitar
TTITLE4=I Turn To You
TTITLE5=Second Hand Man
TTITLE6=Sad Sad Day
TTITLE7=Treat Me Right
TTITLE8=The Last Time
TTITLE9=My Baby's Got Plans
EXTD=
EXTT0=
EXTT1=
EXTT2=
EXTT3=
EXTT4=
EXTT5=
EXTT6=
EXTT7=
EXTT8=
EXTT9=
PLAYORDER=
